<?xml version="1.0" encoding="utf-8"?>
<!-- Generator: Adobe Illustrator 21.0.0, SVG Export Plug-In . SVG Version: 6.00 Build 0)  -->
<svg version="1.1" id="Layer_1" xmlns="http://www.w3.org/2000/svg" xmlns:xlink="http://www.w3.org/1999/xlink" x="0px" y="0px"
	 viewBox="0 0 146 146" style="enable-background:new 0 0 146 146;" xml:space="preserve">
<style type="text/css">
	.st0{fill:#E6E6E6;}
	.st1{fill:#666666;}
	.st2{fill:#F2F2F2;}
	.st3{fill:#FFFFFF;}
	.st4{fill:url(#SVGID_1_);}
	.st5{fill-rule:evenodd;clip-rule:evenodd;fill:#FFFFFF;}
	.st6{fill:url(#SVGID_2_);}
	.st7{fill:#FFCCC4;}
	.st8{opacity:0.2;}
	.st9{fill:url(#SVGID_3_);}
	.st10{fill:url(#SVGID_4_);}
	.st11{fill:none;}
	.st12{opacity:0.5;fill:#CCCCCC;}
	.st13{fill-rule:evenodd;clip-rule:evenodd;fill:#E2001D;}
	.st14{fill-rule:evenodd;clip-rule:evenodd;}
	.st15{fill:#E2001D;}
	.st16{clip-path:url(#SVGID_6_);fill:url(#SVGID_7_);}
	.st17{opacity:0.4;}
	.st18{opacity:0.4;fill:#FFFFFF;}
	.st19{opacity:0.2;fill:url(#SVGID_8_);}
	.st20{clip-path:url(#SVGID_10_);}
	.st21{fill:#B3B3B3;}
	.st22{fill-rule:evenodd;clip-rule:evenodd;fill:#F2F2F2;}
	.st23{opacity:0.3;}
	.st24{fill:url(#SVGID_11_);}
	.st25{fill:url(#SVGID_12_);}
	.st26{fill:url(#SVGID_13_);}
	.st27{fill:#FF9C91;}
	.st28{fill:url(#SVGID_14_);}
	.st29{opacity:0.3;fill:#FF9C91;}
	.st30{fill:#808080;}
	.st31{opacity:0.2;fill:#FFFFFF;}
	.st32{opacity:0.3;fill:#FFFFFF;}
	.st33{clip-path:url(#SVGID_16_);}
	.st34{fill:#4D4D4D;}
	.st35{fill:#1A1A1A;}
	.st36{fill:none;stroke:#4D4D4D;stroke-width:7;stroke-miterlimit:10;}
	.st37{opacity:0.5;clip-path:url(#SVGID_18_);fill:url(#SVGID_19_);}
	.st38{fill:#999999;}
	.st39{fill:url(#SVGID_20_);}
	.st40{fill:url(#SVGID_21_);}
	.st41{fill:#CCCCCC;}
	.st42{fill:#8CC63F;}
	.st43{clip-path:url(#SVGID_23_);}
	.st44{fill:url(#SVGID_24_);}
	.st45{fill:#8EC13D;}
	.st46{fill:url(#SVGID_25_);}
	.st47{fill:#FFE1C3;}
	.st48{fill:url(#SVGID_26_);}
	.st49{fill:url(#SVGID_27_);}
	.st50{fill:url(#SVGID_28_);}
	.st51{fill:url(#SVGID_29_);}
	.st52{fill:url(#SVGID_30_);}
	.st53{fill:url(#SVGID_31_);}
	.st54{fill:url(#SVGID_32_);}
	.st55{fill:url(#SVGID_33_);}
	.st56{opacity:0.3;fill:url(#SVGID_34_);}
	.st57{opacity:0.3;fill:url(#SVGID_35_);}
	.st58{opacity:0.3;fill:url(#SVGID_36_);}
	.st59{opacity:0.3;fill:url(#SVGID_37_);}
	.st60{fill:url(#SVGID_38_);}
	.st61{clip-path:url(#SVGID_40_);fill:url(#SVGID_41_);}
	.st62{fill:url(#SVGID_42_);}
	.st63{opacity:0.3;fill:url(#SVGID_43_);}
	.st64{opacity:0.3;fill:url(#SVGID_44_);}
	.st65{opacity:0.3;fill:url(#SVGID_45_);}
	.st66{opacity:0.3;fill:url(#SVGID_46_);}
	.st67{opacity:0.3;fill:url(#SVGID_47_);}
	.st68{opacity:0.3;fill:url(#SVGID_48_);}
	.st69{opacity:0.3;fill:url(#SVGID_49_);}
	.st70{fill:#F33C3C;}
	.st71{fill:#FF6D63;}
	.st72{fill-rule:evenodd;clip-rule:evenodd;fill:url(#SVGID_50_);}
	.st73{fill-rule:evenodd;clip-rule:evenodd;fill:url(#SVGID_51_);}
	.st74{fill-rule:evenodd;clip-rule:evenodd;fill:url(#SVGID_52_);}
	.st75{stroke:#000000;stroke-width:0.1;stroke-miterlimit:10;}
	.st76{fill:none;stroke:#E2001D;stroke-width:0.65;stroke-miterlimit:10;}
	.st77{fill:none;stroke:#E2001D;stroke-width:0.65;stroke-linecap:round;stroke-miterlimit:10;}
	.st78{fill:none;stroke:#E2001D;stroke-width:3;stroke-miterlimit:10;}
	.st79{fill:none;stroke:#E2001D;stroke-width:3;stroke-linecap:round;stroke-miterlimit:10;}
	.st80{clip-path:url(#SVGID_60_);}
	.st81{fill:url(#SVGID_61_);}
	.st82{fill:url(#SVGID_62_);}
	.st83{fill:url(#SVGID_63_);}
	.st84{fill:url(#SVGID_64_);}
	.st85{fill:url(#SVGID_65_);}
	.st86{fill:url(#SVGID_66_);}
	.st87{fill:url(#SVGID_67_);}
	.st88{fill:url(#SVGID_68_);}
	.st89{fill:url(#SVGID_69_);}
	.st90{clip-path:url(#SVGID_71_);}
	.st91{clip-path:url(#SVGID_73_);fill:#E2001D;}
	.st92{clip-path:url(#SVGID_73_);fill:#FFFFFF;}
	.st93{clip-path:url(#SVGID_73_);fill:#78C241;}
	.st94{clip-path:url(#SVGID_73_);}
	.st95{clip-path:url(#SVGID_75_);}
	.st96{clip-path:url(#SVGID_77_);fill:#FFFFFF;}
	.st97{clip-path:url(#SVGID_73_);fill-rule:evenodd;clip-rule:evenodd;fill:#FFFFFF;}
	.st98{clip-path:url(#SVGID_73_);fill-rule:evenodd;clip-rule:evenodd;}
	.st99{clip-path:url(#SVGID_79_);}
	.st100{clip-path:url(#SVGID_81_);fill:#E2001D;}
	.st101{clip-path:url(#SVGID_81_);fill:#FFFFFF;}
	.st102{clip-path:url(#SVGID_81_);fill:#78C241;}
	.st103{clip-path:url(#SVGID_81_);}
	.st104{clip-path:url(#SVGID_83_);}
	.st105{clip-path:url(#SVGID_85_);fill:#FFFFFF;}
	.st106{clip-path:url(#SVGID_81_);fill-rule:evenodd;clip-rule:evenodd;fill:#FFFFFF;}
	.st107{clip-path:url(#SVGID_81_);fill-rule:evenodd;clip-rule:evenodd;}
	.st108{fill:none;stroke:#E2001D;stroke-width:2.5;stroke-miterlimit:10;}
	.st109{fill:#FFFFFF;stroke:#E2001D;stroke-width:2.5;stroke-miterlimit:10;}
	.st110{fill:none;stroke:#E2001D;stroke-width:2.5;stroke-linecap:round;stroke-miterlimit:10;}
	.st111{fill:none;stroke:#E2001D;stroke-width:2.5;stroke-linecap:round;stroke-miterlimit:10;stroke-dasharray:6,6;}
	.st112{fill:#FFFFFF;stroke:#E2001D;stroke-width:3;stroke-miterlimit:10;}
	.st113{fill:none;stroke:#E2001D;stroke-width:3;stroke-linecap:round;stroke-miterlimit:10;stroke-dasharray:4,6;}
	.st114{fill:none;stroke:#E2001D;stroke-width:3;stroke-linecap:round;stroke-linejoin:round;stroke-miterlimit:10;}
	.st115{fill:none;stroke:#E2001D;stroke-width:2;stroke-linecap:round;stroke-miterlimit:10;}
	.st116{fill:none;stroke:#E2001D;stroke-width:2;stroke-miterlimit:10;}
	.st117{fill:#FFFFFF;stroke:#E2001D;stroke-width:2;stroke-miterlimit:10;}
	.st118{fill:#FFFFFF;stroke:#E2001D;stroke-width:2;stroke-linejoin:round;stroke-miterlimit:10;}
	.st119{fill:#E2001D;stroke:#E2001D;stroke-width:0.5;stroke-miterlimit:10;}
	.st120{fill:none;stroke:#E2001D;stroke-miterlimit:10;}
	.st121{fill:none;stroke:#E2001D;stroke-width:2.25;stroke-linecap:round;stroke-miterlimit:10;}
</style>
<g>
	<g>
		<path class="st15" d="M73,3c38.6,0,70,31.4,70,70s-31.4,70-70,70S3,111.6,3,73S34.4,3,73,3 M73,0C32.7,0,0,32.7,0,73
			s32.7,73,73,73s73-32.7,73-73S113.3,0,73,0L73,0z"/>
	</g>
	<g>
		<g>
			<circle class="st78" cx="46.7" cy="97.5" r="15.8"/>
			<circle class="st78" cx="102" cy="97.5" r="15.8"/>
			<circle class="st15" cx="102" cy="97.5" r="4.1"/>
			<circle class="st15" cx="46.7" cy="97.5" r="4.1"/>
			<circle class="st15" cx="69" cy="97.1" r="1.8"/>
			<line class="st79" x1="55.1" y1="65.1" x2="64.6" y2="65.1"/>
			<circle class="st78" cx="69" cy="97.1" r="4.7"/>
			<path class="st79" d="M80.6,97.5c0-3.8,1-7.4,2.7-10.5c2.1-3.7,5.3-6.7,9.1-8.6"/>
			<path class="st79" d="M74.7,56.3h4.9c0,0,2.1,0,2.9,1.8c0.9,1.8,18.2,36.7,18.2,36.7"/>
			<path class="st79" d="M60.1,65.1l7.3,27.3c-2.3-9.3-10.7-16.2-20.7-16.2c-8,0-14.9,4.4-18.6,10.8"/>
			<line class="st79" x1="63.2" y1="78.4" x2="47.5" y2="96.5"/>
			<line class="st79" x1="89.8" y1="73.2" x2="72.3" y2="93.1"/>
			<path class="st78" d="M96.8,74.4c0.2,0.5,0.7,0.8,1.3,0.8h7.8c0.8,0,1.4-0.6,1.4-1.4V63.1c0-0.8-0.6-1.4-1.4-1.4H92.9
				c-0.5,0-0.9,0.3-1.2,0.7s-0.3,0.9-0.1,1.4L96.8,74.4z"/>
		</g>
		<g>
			<circle class="st117" cx="55.8" cy="41.7" r="13"/>
			<g>
				<path class="st120" d="M59.1,38.7c-0.1-0.1-0.2-0.1-0.3-0.1c0,0,0,0-0.1,0l-3,0.7l1.3-3.5c0,0,0-0.1,0-0.1c0-0.1,0-0.2-0.1-0.2
					c-0.1-0.1-0.1-0.1-0.2-0.1h-2.4c-0.1,0-0.1,0-0.2,0.1c-0.1,0-0.1,0.1-0.1,0.2l-1.5,6.2c0,0.1,0,0.2,0.1,0.3
					c0.1,0.1,0.1,0.1,0.2,0.1c0,0,0.1,0,0.1,0l3-0.8l-1.5,6c0,0.1,0,0.2,0,0.2c0,0.1,0.1,0.1,0.2,0.1c0,0,0.1,0,0.1,0
					c0.1,0,0.2-0.1,0.3-0.2l4-8.6C59.2,38.9,59.1,38.8,59.1,38.7z"/>
			</g>
		</g>
	</g>
</g>
</svg>
